<svg xmlns="http://www.w3.org/2000/svg" version="1.1" xmlns:xlink="http://www.w3.org/1999/xlink" xmlns:svgjs="http://svgjs.dev/svgjs" width="1000" height="707" viewBox="0 0 1000 707"><g transform="matrix(1,0,0,1,-0.6060606060606233,0)"><svg viewBox="0 0 396 280" data-background-color="#282634" preserveAspectRatio="xMidYMid meet" height="707" width="1000" xmlns="http://www.w3.org/2000/svg" xmlns:xlink="http://www.w3.org/1999/xlink"><g id="tight-bounds" transform="matrix(1,0,0,1,0.2400000000000091,0)"><svg viewBox="0 0 395.52 280" height="280" width="395.52"><g><svg viewBox="0 0 395.52 280" height="280" width="395.52"><g><svg viewBox="0 0 395.52 280" height="280" width="395.52"><g><svg viewBox="0 0 395.52 280" height="280" width="395.52"><g><svg viewBox="0 0 395.52 280" height="280" width="395.52"><g transform="matrix(1,0,0,1,116.53337487908377,74.00336708925556)"><svg viewBox="0 0 162.45325024183245 131.99326582148888" height="131.99326582148888" width="162.45325024183245"><g><svg xmlns="http://www.w3.org/2000/svg" xmlns:xlink="http://www.w3.org/1999/xlink" version="1.1" x="0" y="0" viewBox="0 0 64 52" style="enable-background:new 0 0 64 52;" xml:space="preserve" height="131.99326582148888" width="162.45325024183245" class="icon-o-0" data-fill-palette-color="accent" id="o-0"><g fill="#dcdcdc" data-fill-palette-color="accent"><path d="M63.388 50.078l-19-8C44.265 42.026 44.133 42 44 42h-1v2h0.798L62 51.664V52h2v-1C64 50.598 63.759 50.234 63.388 50.078z" fill="#dcdcdc" data-fill-palette-color="accent"></path><path d="M19.612 42.078l-19 8C0.241 50.234 0 50.598 0 51v1h2v-0.336L20.202 44H21v-2h-1C19.867 42 19.735 42.026 19.612 42.078z" fill="#dcdcdc" data-fill-palette-color="accent"></path><path d="M63.755 21.655c0.326-0.376 0.326-0.935 0-1.311C63.176 19.677 49.377 4 32 4S0.824 19.677 0.245 20.345c-0.326 0.376-0.326 0.935 0 1.311C0.719 22.202 10.075 32.825 23 36.643V45c0 0.314 0.148 0.611 0.4 0.8l8 6c0.178 0.134 0.389 0.2 0.6 0.2s0.422-0.066 0.6-0.2l8-6c0.252-0.188 0.4-0.485 0.4-0.8v-8.357C53.925 32.825 63.281 22.202 63.755 21.655zM2.36 21C5.18 18.031 17.503 6 32 6s26.82 12.031 29.64 15C58.82 23.969 46.497 36 32 36S5.18 23.969 2.36 21zM39 44.5l-7 5.25-7-5.25v-7.332C27.248 37.69 29.588 38 32 38s4.752-0.31 7-0.832V44.5z" fill="#dcdcdc" data-fill-palette-color="accent"></path><path d="M45 21c0-7.168-5.832-13-13-13s-13 5.832-13 13 5.832 13 13 13S45 28.168 45 21zM32 10c5.169 0 9.504 3.588 10.677 8.4C40.418 16.535 36.523 14 32 14s-8.418 2.535-10.677 4.4C22.496 13.588 26.831 10 32 10zM42.591 21C41.012 22.499 36.81 26 32 26s-9.012-3.501-10.591-5c1.579-1.499 5.781-5 10.591-5S41.012 19.501 42.591 21zM21.323 23.6C23.582 25.465 27.477 28 32 28s8.418-2.535 10.677-4.4C41.504 28.412 37.169 32 32 32S22.496 28.412 21.323 23.6z" fill="#dcdcdc" data-fill-palette-color="accent"></path><path d="M29 21c0 1.654 1.346 3 3 3s3-1.346 3-3-1.346-3-3-3S29 19.346 29 21zM33 21c0 0.551-0.449 1-1 1s-1-0.449-1-1 0.449-1 1-1S33 20.449 33 21z" fill="#dcdcdc" data-fill-palette-color="accent"></path><path d="M1 12h4c0.552 0 1-0.448 1-1V6h5c0.552 0 1-0.448 1-1V1c0-0.552-0.448-1-1-1H5C2.243 0 0 2.243 0 5v6C0 11.552 0.448 12 1 12zM2 5c0-1.654 1.346-3 3-3h5v2H5C4.448 4 4 4.448 4 5v5H2V5z" fill="#dcdcdc" data-fill-palette-color="accent"></path><path d="M63 29h-4c-0.552 0-1 0.448-1 1v5h-5c-0.552 0-1 0.448-1 1v4c0 0.553 0.448 1 1 1h6c2.757 0 5-2.243 5-5v-6C64 29.448 63.552 29 63 29zM62 36c0 1.654-1.346 3-3 3h-5v-2h5c0.552 0 1-0.448 1-1v-5h2V36z" fill="#dcdcdc" data-fill-palette-color="accent"></path></g></svg></g></svg></g><path d="M67.367 92.939L65.172 99.882 72.056 104.586 81.491 105.838 87.161 102.577 88.508 99.569 81.707 91.687 72.272 90.435ZM62.003 97.103L65.261 89.995 72.389 86.951 83.374 89.332 91.436 98.442 89.347 105.084 81.26 108.954 71.473 107.08 63.342 102.01ZM77.007 71.368L76.208 74.842 85.33 79.612 88.777 73.613 86.856 68.601 80.703 67.501ZM91.409 74.152L87.85 81.356 95.148 85.606 97.01 83.976 98.347 84.477 94.08 91.408 93.229 91.004 93.677 88.053 73.803 76.792 72.215 77.415 71.279 78.626 70.123 77.733 71.661 74.874 73.381 73.785 74.914 70.519 80.587 64.13 89.747 67.523ZM86.617 53.298L96.397 41.786 99.294 45.021 97.456 46.275 96.292 45.286 92.084 50.239 110.499 64.706 112.182 63.62 113.346 64.609 107.95 70.544 107.204 69.91 108.321 67.27 90.287 52.355 88.891 53.998 86.78 57.392 87.944 58.381 86.564 60.484 82.842 57.741ZM121.049 53.99L123.342 53.085 124.185 53.896 118.256 58.475 117.469 57.666 118.89 55.219 102.66 38.293 99.888 39.485 99.229 38.654 105.388 32.978 106.511 33.86 105.089 36.2ZM130.401 46.05L136.158 41.602 138.902 43.305 131.555 49.256 124.325 49.525 113.652 35.516 113.58 27.474 118.894 21.847 124.752 21.729 124.495 29.772 123.022 29.712 122.349 24.625 119.537 24.314 116.02 28.28 117.455 33.977 126.219 46.377ZM153.799 10.274L147.033 12.967 147.745 21.274 152.744 29.374 158.857 31.702 162.039 30.842 163.84 20.589 158.842 12.489ZM147.181 8.754L154.747 6.781 161.614 10.376 166.719 20.39 164.764 32.396 158.299 34.98 150.185 31.166 145.445 22.4 144.227 12.896ZM176.609 4.098L173.412 5.676 175.486 15.758 182.313 14.635 184.981 9.977 181.941 4.515ZM183.56 17.015L175.728 18.813 177.051 27.155 179.492 27.566 179.949 28.919 171.881 29.996 171.656 29.082 174.225 27.562 170.381 5.045 168.894 4.209 167.364 4.25 167.324 2.79 170.512 2.174 172.443 2.817 175.943 1.939 184.48 2.293 187.644 11.536ZM196.684 0.114L211.785 0.41 211.112 4.7 208.978 4.07 209.008 2.542 202.51 2.415 202.95 25.829 204.855 26.445 204.825 27.973 196.815 27.546 196.834 26.568 199.586 25.763 199.735 2.361 197.579 2.318 193.615 2.83 193.585 4.357 191.084 4.618 190.854 0ZM217.925 27.223L220.076 28.425 219.981 29.592 212.685 27.897 212.813 26.775 215.607 26.328 218.449 3.051 215.772 1.658 215.999 0.622 224.292 1.801 224.319 3.229 221.606 3.608ZM246.9 36.168L249.264 37.857 248.726 38.877 240.864 36.228 241.196 35.098 244.546 35.304 251.851 14.766 251.431 14.542 236.279 33.877 234.166 33.177 233.904 9.351 232.989 9.132 227.471 29.516 229.563 31.04 229.325 32.486 221.691 29.787 221.935 28.795 224.394 28.706 231.635 5.885 229.467 4.209 229.646 3.322 235.666 5.655 236.156 7.668 236.213 30.111 236.583 30.107 250.17 11.652 251.516 10.7 257.42 12.657 257.027 13.842 255.174 13.69ZM255.359 40.629L256.984 42.482 256.504 43.55 250.195 39.511 250.691 38.497 253.473 39.01 263.939 18.025 261.882 15.817 262.442 14.917 269.863 18.802 269.411 20.157 266.728 19.606ZM271.976 25.556L275.242 22.075 276.51 23.854 289.238 32.623 287.993 34.912 263.418 43.495 263.686 44.595 272.43 49.995 273.913 48.455 276.658 50.125 274.012 54.971 258.274 44.232 259.522 41.614 284.176 32.903 275.625 26.634 273.996 27.776ZM292.831 67.247L288.407 71.561 274.491 56.715 275.324 55.651 278.541 57.986 294.416 40.849 292.877 37.509 293.64 36.33 307.875 51.853 304.27 55.378 302.943 53.884 304.311 51.749 296.987 44.083 295.77 44.229 289.838 50.202 297.605 59.451 296.118 60.397 287.922 52.213 285.501 54.377 282.088 60.433 288.669 67.831 291.281 65.967ZM309.947 77.251L314.936 78.27 318.495 74.414 316.347 68.984 313.702 65.888 306.651 71.003ZM308.182 88.854L307.273 92.31 301.031 90.455 299.863 87.587 306.609 81.006 306.973 76.456 303.679 72.517 295.479 77.707 296.075 80.236 294.971 81.279 290.66 74.05 291.516 73.441 293.49 74.933 310.866 63.683 311.429 61.683 310.225 59.118 312.076 58.107 313.83 60.803 314.119 62.548 315.371 62.925 320.815 72.071 319.533 78.652 313.602 81.472 309.615 79.929 308.77 83.849 302.923 87.778 303.102 88.676ZM329.538 89.719L333.543 98.499 332.817 101.397 334.627 101.887 333.812 104.403 328.389 102.492 329.156 100.623 330.78 98.02 327.862 92.841 323.848 91.026 320.529 94.799 321.555 105.224 319.63 108.48 312.235 110.472 305.904 104.181 305.252 96.78 302.997 96.326 302.684 93.898 308.428 94.316 308.568 96.393 308.84 102.882 313.233 107.761 318.51 104.562 316.655 92.443 323.547 87.508ZM93.938 184.625L91.292 177.841 82.98 178.496 74.846 183.439 72.476 189.536 73.315 192.723 83.555 194.596 91.688 189.652ZM95.504 178.018L97.425 185.597 93.783 192.439 83.734 197.475 71.742 195.438 69.202 188.955 73.072 180.868 81.87 176.188 91.382 175.036ZM102.493 200.724L99.866 198.315 91.216 203.895 94.732 209.854 100.04 210.656 104.033 205.847ZM92.964 211.877L88.456 205.226 81.157 209.476 81.656 211.9 80.561 212.815 76.639 205.684 77.409 205.143 79.755 206.988 99.358 195.261 99.599 193.572 99.008 192.16 100.354 191.596 102.082 194.344 102.18 196.378 104.265 199.323 107.022 207.41 99.55 213.702ZM112.791 211.4L122.571 222.911 118.91 225.248 117.97 223.231 119.134 222.242 114.926 217.289 97.674 233.125 98.473 234.961 97.309 235.95 92.324 229.666 93.07 229.032 95.495 230.561 113.129 215.174 111.733 213.531 108.724 210.899 107.56 211.888 105.708 210.186 109.016 206.957ZM109.601 245.578L110.726 247.77 110.001 248.689 104.863 243.238 105.591 242.375 108.165 243.549 123.418 225.738 121.959 223.095 122.722 222.358 128.975 227.931 128.207 229.135 125.739 227.949ZM121.46 253.535L127.573 257.478 126.883 260.633 118.822 255.693 116.155 248.967 125.801 234.231 133.357 231.479 140.435 234.611 142.501 240.094 134.834 242.535 134.399 241.128 138.969 238.795 138.324 236.041 133.412 234.048 128.52 237.303 119.756 249.702ZM163.351 250.154L156.423 247.912 151.673 254.763 150.355 264.189 153.578 269.882 156.576 271.249 164.505 264.503 165.822 255.077ZM159.225 244.761L166.31 248.068 169.305 255.218 166.848 266.186 157.683 274.184 151.056 272.05 147.241 263.937 149.183 254.163 154.308 246.067ZM181.228 253.708L177.7 254.22 176.553 264.449 183.392 265.493 187.37 261.889 186.17 255.755ZM183.842 268.142L175.838 267.429 174.515 275.77 176.709 276.917 176.725 278.345 168.72 276.873 168.788 275.934 171.701 275.284 175.013 252.682 173.857 251.427 172.39 250.992 172.804 249.592 176.026 249.992 177.663 251.202 181.263 251.449 189.271 254.427 189.42 264.195ZM196.011 252.482L211.113 252.186 210.608 256.499 208.451 255.953 208.421 254.425 201.923 254.553 203.279 277.931 205.207 278.473 205.237 280 197.217 279.888 197.198 278.909 199.916 277.997 199.148 254.607 196.992 254.649 193.051 255.316 193.081 256.843 190.591 257.201 190.182 252.596ZM220.467 276.57L222.877 277.085 223.13 278.228 215.658 278.759 215.45 277.65 217.987 276.399 213.842 253.318 210.873 252.776 210.784 251.72 219.056 250.402 219.503 251.758 217.022 252.919ZM252.146 266.588L255.051 266.53 255.229 267.67 247.342 270.243 246.933 269.137 249.743 267.301 243.329 246.468 242.858 246.54 242.261 271.097 240.148 271.798 225.703 252.849 224.837 253.22 232.591 272.862 235.18 272.835 235.854 274.136 228.118 276.533 227.722 275.592 229.641 274.051 221.812 251.425 219.072 251.377 218.685 250.558 224.907 248.832 226.503 250.154 239.958 268.116 240.252 267.893 240.12 244.976 240.631 243.408 246.535 241.45 246.927 242.634 245.351 243.62ZM263.394 261.342L265.837 261.021 266.458 262.014 259.594 265.014 259.027 264.038 261 262.01 249.372 241.646 246.393 242.129 245.956 241.162 253.31 237.153 254.185 238.282 252.236 240.206ZM256.76 240.125L254.517 235.911 256.609 235.284 269.012 226.061 270.777 227.977 270.984 254.007 272.112 254.107 280.041 247.571 279.061 245.67 281.527 243.609 285.262 247.676 270.024 259.114 267.948 257.089 267.646 230.943 258.956 237.018 259.512 238.928ZM299.26 225.875L303.74 230.132 289.436 244.604 288.341 243.813 290.551 240.509 272.821 225.3 269.542 226.965 268.335 226.247 283.303 211.431 286.963 214.898 285.52 216.281 283.335 214.995 275.954 222.606 276.147 223.817 282.342 229.517 291.288 221.403 292.29 222.852 284.424 231.355 286.679 233.691 292.861 236.871 300.002 230.013 298.041 227.473ZM301.75 204.636L300.415 199.722 295.37 198.281 291.488 202.643 289.914 206.399 297.655 210.392ZM312.906 200.989L316.401 200.245 317.555 206.654 315.52 208.988 306.607 205.927 302.38 207.65 300.345 212.365 308.67 217.351 310.66 215.68 312.089 216.197 307.574 223.3 306.645 222.81 307.089 220.375 289.221 209.923 287.182 210.321 285.434 212.551 283.698 211.353 285.316 208.574 286.744 207.53 286.517 206.242 292.233 197.263 298.687 195.446 303.875 199.473 304.292 203.727 308.173 202.717 314.312 206.17 315.035 205.606ZM298.283 185.649L300.959 176.377 303.397 174.65 302.342 173.1 304.598 171.72 307.471 176.701 305.672 177.621 302.745 178.539 301.588 184.37 303.454 188.361 308.429 187.658 314.437 179.077 318.018 177.857 324.928 181.16 325.639 190.056 321.316 196.099 322.732 197.911 321.388 199.958 317.301 195.902 318.546 194.234 322.564 189.131 322.406 182.568 316.317 181.561 309.836 191.968 301.392 191.228ZM60.893 143.467C60.893 137.385 65.824 132.455 71.905 132.455 77.987 132.455 82.918 137.385 82.918 143.467 82.918 149.549 77.987 154.48 71.905 154.48 65.824 154.48 60.893 149.549 60.893 143.467ZM312.476 143.467C312.476 137.385 317.407 132.455 323.489 132.455 329.571 132.455 334.501 137.385 334.501 143.467 334.501 149.549 329.571 154.48 323.489 154.48 317.407 154.48 312.476 149.549 312.476 143.467Z" fill="#ff4057" data-fill-palette-color="primary"></path></svg></g></svg></g></svg></g><g></g></svg></g><defs></defs></svg><rect width="395.52" height="280" fill="none" stroke="none" visibility="hidden"></rect></g></svg></g></svg>